<svg width="1325" height="693" viewBox="0 0 1325 693" fill="none" xmlns="http://www.w3.org/2000/svg">
  <defs>
    <linearGradient id="bg" x1="0" y1="0" x2="1325" y2="693" gradientUnits="userSpaceOnUse">
      <stop stop-color="#0A0A0D"/>
      <stop offset="0.52" stop-color="#050507"/>
      <stop offset="1" stop-color="#15131B"/>
    </linearGradient>
    <linearGradient id="warmGlow" x1="1100" y1="120" x2="980" y2="620" gradientUnits="userSpaceOnUse">
      <stop stop-color="#3A2A1A" stop-opacity="0.06"/>
      <stop offset="1" stop-color="#F59E0B" stop-opacity="0.16"/>
    </linearGradient>
    <linearGradient id="cta" x1="0" y1="0" x2="132" y2="0" gradientUnits="userSpaceOnUse">
      <stop stop-color="#F59E0B"/>
      <stop offset="1" stop-color="#FBBF24"/>
    </linearGradient>
    <linearGradient id="titleFade" x1="81" y1="304" x2="755" y2="304" gradientUnits="userSpaceOnUse">
      <stop stop-color="#FFFFFF"/>
      <stop offset="0.55" stop-color="#D1D5DB"/>
      <stop offset="1" stop-color="#FFFFFF"/>
    </linearGradient>
  </defs>

  <rect width="1325" height="693" rx="24" fill="url(#bg)"/>
  <rect width="1325" height="693" rx="24" fill="url(#warmGlow)"/>

  <g opacity="0.2">
    <rect x="128" y="0" width="1" height="693" fill="#23232A"/>
    <rect x="304" y="0" width="1" height="693" fill="#17171D"/>
    <rect x="748" y="0" width="1" height="693" fill="#17171D"/>
    <rect x="959" y="0" width="1" height="693" fill="#17171D"/>
  </g>

  <rect x="80" y="22" width="30" height="30" rx="4" fill="#FBBF24"/>
  <text x="95" y="43" text-anchor="middle" fill="#111111" font-family="Arial, sans-serif" font-size="18" font-weight="800">A</text>
  <text x="118" y="43" fill="#FFFFFF" font-family="Arial, sans-serif" font-size="18" font-weight="800" letter-spacing="0.08em">APEX</text>

  <g fill="#9CA3AF" font-family="Arial, sans-serif" font-size="16">
    <text x="469" y="42">Platform</text>
    <text x="556" y="42">Features</text>
    <text x="641" y="42">Insights</text>
  </g>

  <rect x="983" y="18" width="82" height="38" rx="19" stroke="#2B2B33"/>
  <text x="1024" y="43" text-anchor="middle" fill="#F9FAFB" font-family="Arial, sans-serif" font-size="16" font-weight="700">Sign In</text>
  <rect x="1081" y="18" width="132" height="38" rx="19" fill="url(#cta)"/>
  <text x="1134" y="43" text-anchor="middle" fill="#111111" font-family="Arial, sans-serif" font-size="16" font-weight="800">Get Started</text>
  <path d="M1185 32L1191 37L1185 42" stroke="#111111" stroke-width="2" stroke-linecap="round" stroke-linejoin="round"/>

  <rect x="80" y="117" width="216" height="26" rx="13" fill="#2B200C" stroke="#5A3C0A"/>
  <text x="188" y="135" text-anchor="middle" fill="#F59E0B" font-family="Arial, sans-serif" font-size="13" font-weight="800" letter-spacing="0.04em">NEXT-GEN FINTECH PLATFORM</text>

  <text x="80" y="243" fill="url(#titleFade)" font-family="Arial, sans-serif" font-size="92" font-weight="800">Smarter</text>
  <text x="80" y="342" fill="url(#titleFade)" font-family="Arial, sans-serif" font-size="92" font-weight="800">Investing Begins</text>
  <text x="80" y="441" fill="#FFFFFF" font-family="Arial, sans-serif" font-size="92" font-weight="800">Now</text>

  <g fill="#9CA3AF" font-family="Arial, sans-serif" font-size="17">
    <text x="80" y="499">Intelligent algorithms meet institutional-grade security.</text>
    <text x="80" y="530">Experience a new standard of wealth management designed</text>
    <text x="80" y="561">for the modern investor.</text>
  </g>

  <rect x="79" y="611" width="171" height="55" rx="27.5" fill="url(#cta)"/>
  <text x="142" y="645" text-anchor="middle" fill="#111111" font-family="Arial, sans-serif" font-size="19" font-weight="800">Start Now</text>
  <path d="M207 633L213 639L207 645" stroke="#111111" stroke-width="2.2" stroke-linecap="round" stroke-linejoin="round"/>

  <rect x="264" y="611" width="186" height="55" rx="27.5" stroke="#2A2A31"/>
  <text x="334" y="645" text-anchor="middle" fill="#E5E7EB" font-family="Arial, sans-serif" font-size="19" font-weight="700">Learn More</text>
  <path d="M401 631L409 631L409 639" stroke="#E5E7EB" stroke-width="2" stroke-linecap="round" stroke-linejoin="round"/>
  <path d="M399 641L409 631" stroke="#E5E7EB" stroke-width="2" stroke-linecap="round"/>

  <g opacity="0.45" fill="#8B8B93" font-family="Arial, sans-serif">
    <text x="1100" y="633" font-size="18">Activate Windows</text>
    <text x="1100" y="654" font-size="12">Go to Settings to activate Windows.</text>
  </g>
</svg>
